# AST/ASF file generated using VICON BodyLanguage
# -----------------------------------------------
:version 1.10
:name VICON
:units
  mass 1.0
  length 0.45
  angle deg
:documentation
   .ast/.asf automatically generated from VICON data using
   VICON BodyBuilder and BodyLanguage model FoxedUp or BRILLIANT.MOD
:root
   order TX TY TZ RX RY RZ
   axis XYZ
   position 0 0 0  
   orientation 0 0 0 
:bonedata
  begin
     id 1 
     name lhipjoint
     direction 0.567725 -0.736092 0.368589 
     length 2.42353 
     axis 0 0 0  XYZ
  end
  begin
     id 2 
     name lfemur
     direction 0.34202 -0.939693 0  
     length 7.24894  
     axis 0 0 20  XYZ
    dof rx ry rz
    limits (-160.0 20.0)
           (-70.0 70.0)
           (-60.0 70.0)
  end
  begin
     id 3 
     name ltibia
     direction 0.34202 -0.939693 0   
     length 7.6997   
     axis 0 0 20   XYZ
    dof rx
    limits (-10.0 170.0)
  end
  begin
     id 4 
     name lfoot
     direction 0.100767 -0.276854 0.955614   
     length 2.37556   
     axis -90 7.62852e-016 20   XYZ
    dof rx rz
    limits (-45.0 90.0)
           (-70.0 20.0)
  end
  begin
     id 5 
     name ltoes
     direction 1.53592e-011 -4.21894e-011 1   
     length 1.18363   
     axis -90 7.62852e-016 20   XYZ
    dof rx
    limits (-90.0 20.0)
  end
  begin
     id 6 
     name rhipjoint
     direction -0.556459 -0.742938 0.372017   
     length 2.4012  
     axis 0 0 0  XYZ 
  end
  begin
     id 7 
     name rfemur
     direction -0.34202 -0.939693 0   
     length 7.5119   
     axis 0 0 -20   XYZ
    dof rx ry rz
    limits (-160.0 20.0)
           (-70.0 70.0)
           (-70.0 60.0)
  end
  begin
     id 8 
     name rtibia
     direction -0.34202 -0.939693 0   
     length 7.50155   
     axis 0 0 -20   XYZ
    dof rx
    limits (-10.0 170.0)
 end
 begin
     id 9 
     name rfoot
     direction -0.118427 -0.325376 0.938139   
     length 2.32487  
     axis -90 -7.62852e-016 -20   XYZ
    dof rx rz
    limits (-45.0 90.0)
           (-20.0 70.0)
  end
  begin
     id 10 
     name rtoes
     direction -1.53525e-011 -4.21868e-011 1   
     length 1.15233   
     axis -90 -7.62852e-016 -20   XYZ
    dof rx
    limits (-90.0 20.0)
  end
  begin
     id 11 
     name lowerback
     direction 0.0287568 0.999577 -0.00434502   
     length 2.15243   
     axis 0 0 0   XYZ
    dof rx ry rz
    limits (-20.0 45.0)
           (-30.0 30.0)
           (-30.0 30.0)
  end
  begin
     id 12 
     name upperback
     direction 0.0294009 0.99956 0.00404628   
     length 2.15427   
     axis 0 0 0   XYZ
    dof rx ry rz
    limits (-20.0 45.0)
           (-30.0 30.0)
           (-30.0 30.0)
  end
  begin
     id 13 
     name thorax
     direction 0.0151014 0.999868 0.0059419   
     length 2.14898   
     axis 0 0 0   XYZ
    dof rx ry rz
    limits (-20.0 45.0)
           (-30.0 30.0)
           (-30.0 30.0)
  end
  begin
     id 14 
     name lowerneck
     direction -0.0249197 0.989906 0.139515   
     length 1.6861   
     axis 0 0 0   XYZ
    dof rx ry rz
    limits (-20.0 45.0)
           (-30.0 30.0)
           (-30.0 30.0)
  end
  begin
     id 15 
     name upperneck
     direction 0.0438463 0.988795 -0.142693   
     length 1.71276   
     axis 0 0 0   XYZ
    dof rx ry rz
    limits (-20.0 45.0)
           (-30.0 30.0)
           (-30.0 30.0)
  end
  begin
     id 16
     name head
     direction 0.0148499 0.997845 -0.0639186  
     length 1.7209  
     axis 0 0 0   XYZ
    dof rx ry rz
    limits (-20.0 45.0)
           (-30.0 30.0)
           (-30.0 30.0)
  end
  begin
     id 17 
     name lclavicle
     direction 0.940298 0.323464 -0.105876  
     length 3.9048  
     axis 0 0 0   XYZ
    dof ry rz
    limits (-20.0 10.0)
           (0.0 20.0)
  end
  begin
     id 18 
     name lhumerus
     direction 1 -4.48954e-011 -4.9675e-028   
     length 4.6851   
     axis 180 -30 -90   XYZ
    dof rx ry rz
    limits (-60.0 90.0)
           (-90.0 90.0)
           (-90.0 90.0)
  end
  begin
     id 19
     name lradius
     direction 1 -4.48992e-011 -1.03359e-026   
     length 3.39626   
     axis 180 -30 -90   XYZ
    dof rx
    limits (-10.0 170.0)
  end
  begin
     id 20
     name lwrist
     direction 1 -4.48906e-011 -1.67336e-026   
     length 1.69813   
     axis 9.90442e-015 90 90   XYZ
    dof ry
    limits (-180.0 0.0)
 end
  begin
     id 21 
     name lhand
     direction 1 -4.49006e-011 -3.34673e-026   
     length 0.486078   
     axis 2.1355e-014 90 90   XYZ
    dof rx rz
    limits (-90.0 90.0)
           (-45.0 45.0)
  end
  begin
     id 22 
     name lfingers
     direction 1 -4.48992e-011 -6.69345e-026   
     length 0.391889   
     axis 4.27099e-014 90 90   XYZ
    dof rx
    limits (0.0 90.0)
  end
  begin
     id 23
     name lthumb
     direction 0.707107 -6.34926e-011 0.707107   
     length 0.562676   
     axis -90 45 2.85299e-015   XYZ
    dof rx rz
    limits (-45.0 45.0)
           (-45.0 45.0)
  end
  begin
     id 24 
     name rclavicle
     direction -0.882459 0.414895 -0.221648   
     length 3.44646  
     axis 0 0 0   XYZ 
    dof ry rz
    limits (-10.0 20.0)
           (-20.0 0.0)
  end
  begin
     id 25 
     name rhumerus
     direction -1 -4.48962e-011 -2.37984e-027  
     length 5.55576   
     axis 180 30 90   XYZ
    dof rx ry rz
    limits (-90.0 60.0)
           (-90.0 90.0)
           (-90.0 90.0)
  end
  begin
     id 26 
     name rradius
     direction -1 -4.48982e-011 -6.86791e-027   
     length 3.32774   
     axis 180 30 90   XYZ
    dof rx
    limits (-10.0 170.0)
  end
  begin
     id 27 
     name rwrist
     direction -1 -4.48961e-011 -1.67336e-026   
     length 1.66387   
     axis 9.90442e-015 -90 -90   XYZ
    dof ry
    limits (-180.0 0.0)
  end
  begin
     id 28
     name rhand
     direction -1 -4.4897e-011 -3.34673e-026   
     length 0.507628   
     axis 2.1355e-014 -90 -90   XYZ
    dof rx rz
    limits (-90.0 90.0)
           (-45.0 45.0)
  end
  begin
     id 29
     name rfingers
     direction -1 -4.48854e-011 -6.69345e-026   
     length 0.409263   
     axis 4.27099e-014 -90 -90   XYZ
    dof rx
    limits (0.0 90.0)
  end
  begin
     id 30
     name rthumb
     direction -0.707107 -6.34913e-011 0.707107   
     length 0.587622   
     axis -90 -45 -2.85299e-015   XYZ
    dof rx rz
    limits (-45.0 45.0)
           (-45.0 45.0)
  end
:hierarchy
  begin
    root lhipjoint rhipjoint lowerback
    lhipjoint lfemur
    lfemur ltibia
    ltibia lfoot
    lfoot ltoes
    rhipjoint rfemur
    rfemur rtibia
    rtibia rfoot
    rfoot rtoes
    lowerback upperback
    upperback thorax
    thorax lowerneck lclavicle rclavicle
    lowerneck upperneck
    upperneck head
    lclavicle lhumerus
    lhumerus lradius
    lradius lwrist
    lwrist lhand lthumb
    lhand lfingers
    rclavicle rhumerus
    rhumerus rradius
    rradius rwrist
    rwrist rhand rthumb
    rhand rfingers
  end

#!OML:ASF E:\motion texture\Top Level 1\Subject 1\Session 1\male.ASF
:FULLY-SPECIFIED
:DEGREES
49
root 45.1466 17.8157 4.37672 134.635 -85.4886 -126.973
lowerback -4.50014 -0.49222 3.18028
upperback -1.73393 -0.878681 2.43242
thorax 0.732505 -0.468606 0.669194
lowerneck -12.9375 -6.028 -9.88895
upperneck 11.4901 -6.6394 2.3521
head 6.01665 -3.49659 1.71872
rclavicle -6.70898e-015 3.69739e-014
rhumerus -22.8786 6.13855 -94.4659
rradius 30.9602
rwrist 8.73952
rhand -11.7318 -27.0369
rfingers 7.12502
rthumb 14.3155 -56.5234
lclavicle -6.70898e-015 3.69739e-014
lhumerus -21.1874 -5.92991 97.1154
lradius 28.0962
lwrist -20.9851
lhand -8.07971 22.7114
lfingers 7.12502
lthumb 17.8321 51.9139
rfemur -9.32613 1.30134 25.6776
rtibia 16.6052
rfoot -14.8095 -15.5938
rtoes 18.3547
lfemur -9.05729 -9.33024 -12.5605
ltibia 13.7869
lfoot -10.6499 -0.613087
ltoes -4.33545
50
root 45.1387 17.81 4.37402 134.103 -85.4874 -126.447
lowerback -4.49485 -0.481088 3.22328
upperback -1.70446 -0.866212 2.43389
thorax 0.759329 -0.461864 0.647131
lowerneck -13.0451 -5.84086 -9.7011
upperneck 11.5791 -6.40331 2.30159
head 6.04027 -3.37863 1.6941
rclavicle 9.11925e-015 1.03368e-014
rhumerus -23.0352 5.76458 -94.3177
rradius 30.7831
rwrist 8.74416
rhand -11.7376 -27.0184
rfingers 7.12502
rthumb 14.3099 -56.5053
lclavicle 9.11925e-015 1.03368e-014
lhumerus -21.2523 -5.57309 96.9835
lradius 27.7929
lwrist -21.4007
lhand -8.11076 22.6613
lfingers 7.12502
lthumb 17.8023 51.8665
rfemur -9.37779 1.24394 25.7274
rtibia 16.795
rfoot -15.0807 -15.5877
rtoes 18.1378
lfemur -9.22201 -9.34537 -12.5266
ltibia 14.1462
lfoot -10.8235 -0.615976
ltoes -4.55004
51
root 45.1301 17.804 4.37095 133.472 -85.4837 -125.824
lowerback -4.48852 -0.470527 3.27218
upperback -1.67403 -0.854817 2.43699
thorax 0.786497 -0.455658 0.623419
lowerneck -13.1421 -5.65622 -9.52149
upperneck 11.657 -6.17218 2.26355
head 6.06007 -3.26232 1.67459
rclavicle 6.75868e-015 -3.97569e-016
rhumerus -23.1966 5.35679 -94.1518
rradius 30.5937
rwrist 8.73844
rhand -11.7461 -27.0165
rfingers 7.12502
rthumb 14.3016 -56.5039
lclavicle 6.75868e-015 -3.97569e-016
lhumerus -21.3165 -5.16319 96.8283
lradius 27.4571
lwrist -21.845
lhand -8.14416 22.6139
lfingers 7.12502
lthumb 17.7701 51.822
rfemur -9.42672 1.18737 25.7871
rtibia 16.9889
rfoot -15.359 -15.5825
rtoes 17.9201
lfemur -9.40663 -9.3519 -12.4849
ltibia 14.5541
lfoot -11.0106 -0.617647
ltoes -4.79757
52
root 45.121 17.7976 4.36753 132.741 -85.477 -125.102
lowerback -4.47934 -0.460286 3.3259
upperback -1.64254 -0.844031 2.44232
thorax 0.813145 -0.449759 0.599297
lowerneck -13.2421 -5.47597 -9.33851
upperneck 11.7364 -5.94702 2.22093
head 6.08148 -3.14907 1.65239
rclavicle -1.88845e-014 1.82882e-014
rhumerus -23.3625 4.91783 -93.9676
rradius 30.3934
rwrist 8.72547
rhand -11.7616 -27.0251
rfingers 7.12502
rthumb 14.2867 -56.5136
lclavicle -1.88845e-014 1.82882e-014
lhumerus -21.3799 -4.70359 96.6506
lradius 27.0915
lwrist -22.3154
lhand -8.17898 22.5699
lfingers 7.12502
lthumb 17.7366 51.781
rfemur -9.47213 1.13148 25.8572
rtibia 17.1859
rfoot -15.6433 -15.5777
rtoes 17.7004
lfemur -9.61231 -9.3502 -12.4349
ltibia 15.0046
lfoot -11.2036 -0.620131
ltoes -5.07129
53
root 45.1112 17.7908 4.36374 131.904 -85.4667 -124.277
lowerback -4.46792 -0.450444 3.38534
upperback -1.60978 -0.834046 2.44986
thorax 0.839807 -0.444255 0.574237
lowerneck -13.3474 -5.30155 -9.14694
upperneck 11.8196 -5.72941 2.16506
head 6.10527 -3.04014 1.62369
rclavicle 2.14936e-015 -2.18663e-014
rhumerus -23.535 4.45234 -93.7656
rradius 30.187
rwrist 8.70322
rhand -11.7849 -27.0428
rfingers 7.12502
rthumb 14.2643 -56.5329
lclavicle 2.14936e-015 -2.18663e-014
lhumerus -21.4431 -4.19237 96.4495
lradius 26.6987
lwrist -22.8123
lhand -8.22157 22.5325
lfingers 7.12502
lthumb 17.6956 51.7473
rfemur -9.51372 1.07569 25.938
rtibia 17.3848
rfoot -15.9324 -15.5733
rtoes 17.4799
lfemur -9.8408 -9.33986 -12.3758
ltibia 15.5016
lfoot -11.402 -0.621283
ltoes -5.37861
54
root 45.1007 17.7837 4.35959 130.968 -85.4525 -123.354
lowerback -4.45402 -0.441045 3.4504
upperback -1.5756 -0.824898 2.45947
thorax 0.866495 -0.439157 0.548144
lowerneck -13.4352 -5.13133 -8.97441
upperneck 11.8833 -5.51943 2.13519
head 6.12216 -2.93345 1.60606
rclavicle -3.81418e-015 -1.19271e-015
rhumerus -23.7116 3.96204 -93.5467
rradius 29.9722
rwrist 8.67715
rhand -11.8093 -27.0823
rfingers 7.12502
rthumb 14.2408 -56.574
lclavicle -3.81418e-015 -1.19271e-015
lhumerus -21.5069 -3.62736 96.2237
lradius 26.2814
lwrist -23.3372
lhand -8.26546 22.502
lfingers 7.12502
lthumb 17.6534 51.7206
rfemur -9.55072 1.02058 26.0294
rtibia 17.5846
rfoot -16.226 -15.5696
rtoes 17.2633
lfemur -10.0926 -9.31973 -12.3079
ltibia 16.0468
lfoot -11.6054 -0.621435
ltoes -5.71859
55
root 45.0896 17.7762 4.35508 129.926 -85.435 -122.326
lowerback -4.43634 -0.432741 3.52105
upperback -1.54032 -0.817363 2.47092
thorax 0.892143 -0.434862 0.520784
lowerneck -13.5226 -4.96786 -8.80265
upperneck 11.9439 -5.31859 2.10418
head 6.13894 -2.83121 1.58728
rclavicle -7.45443e-017 -3.18055e-014
rhumerus -23.8906 3.44959 -93.312
rradius 29.7482
rwrist 8.65215
rhand -11.8488 -27.1248
rfingers 7.12502
rthumb 14.2027 -56.6192
lclavicle -7.45443e-017 -3.18055e-014
lhumerus -21.5722 -3.00793 95.9722
lradius 25.8414
lwrist -23.8898
lhand -8.31225 22.4865
lfingers 7.12502
lthumb 17.6084 51.7091
rfemur -9.58131 0.9643 26.1306
rtibia 17.7828
rfoot -16.5221 -15.5662
rtoes 17.0486
lfemur -10.3685 -9.28939 -12.232
ltibia 16.6397
lfoot -11.8093 -0.620175
ltoes -6.10259
56
root 45.0778 17.7684 4.35022 128.787 -85.4131 -121.204
lowerback -4.41547 -0.42511 3.5973
upperback -1.5034 -0.810927 2.4843
thorax 0.917636 -0.431096 0.492249
lowerneck -13.6113 -4.81193 -8.62924
upperneck 12.0026 -5.12773 2.06817
head 6.15607 -2.73404 1.56562
rclavicle -1.06226e-014 1.15295e-014
rhumerus -24.0729 2.91917 -93.0621
rradius 29.5188
rwrist 8.62684
rhand -11.897 -27.1798
rfingers 7.12502
rthumb 14.1563 -56.6775
lclavicle -1.06226e-014 1.15295e-014
lhumerus -21.6393 -2.33544 95.6946
lradius 25.3827
lwrist -24.4667
lhand -8.35781 22.4823
lfingers 7.12502
lthumb 17.5645 51.7089
rfemur -9.60712 0.909577 26.2423
rtibia 17.9824
rfoot -16.8222 -15.5644
rtoes 16.8382
lfemur -10.6696 -9.24564 -12.1476
ltibia 17.2824
lfoot -12.0145 -0.618044
ltoes -6.52417
57
root 45.0653 17.7603 4.34501 127.575 -85.3854 -120.011
lowerback -4.39185 -0.417716 3.67946
upperback -1.46479 -0.805045 2.49935
thorax 0.943284 -0.427578 0.462128
lowerneck -13.6889 -4.66319 -8.46915
upperneck 12.0459 -4.94753 2.04839
head 6.16818 -2.64112 1.5505
rclavicle 5.46658e-015 -3.37934e-014
rhumerus -24.258 2.37443 -92.7983
rradius 29.2841
rwrist 8.60464
rhand -11.9611 -27.2302
rfingers 7.12502
rthumb 14.0945 -56.7322
lclavicle 5.46658e-015 -3.37934e-014
lhumerus -21.7088 -1.60686 95.3892
lradius 24.9075
lwrist -25.0693
lhand -8.40307 22.4877
lfingers 7.12502
lthumb 17.521 51.7181
rfemur -9.62727 0.855407 26.364
rtibia 18.1803
rfoot -17.1231 -15.562
rtoes 16.6312
lfemur -10.9964 -9.18755 -12.0549
ltibia 17.9747
lfoot -12.2197 -0.612681
ltoes -6.98216
58
root 45.052 17.752 4.33946 126.294 -85.3521 -118.749
lowerback -4.36529 -0.410623 3.76683
upperback -1.42464 -0.799746 2.51597
thorax 0.968827 -0.424322 0.430712
lowerneck -13.761 -4.52276 -8.31527
upperneck 12.079 -4.7788 2.03407
head 6.17732 -2.5534 1.53712
rclavicle -2.16178e-015 -1.31198e-014
rhumerus -24.4456 1.8187 -92.5214
rradius 29.0463
rwrist 8.58577
rhand -12.0239 -27.3095
rfingers 7.12502
rthumb 14.0339 -56.8157
lclavicle -2.16178e-015 -1.31198e-014
lhumerus -21.7817 -0.822694 95.0555
lradius 24.4186
lwrist -25.6971
lhand -8.44912 22.5043
lfingers 7.12502
lthumb 17.4767 51.7387
rfemur -9.64167 0.80031 26.4949
rtibia 18.3758
rfoot -17.424 -15.5582
rtoes 16.4281
lfemur -11.3494 -9.11322 -11.9545
ltibia 18.716
lfoot -12.4245 -0.60355
ltoes -7.49215
59
root 45.038 17.7433 4.33357 124.944 -85.3123 -117.421
lowerback -4.33528 -0.403988 3.86008
upperback -1.38261 -0.795248 2.53426
thorax 0.994314 -0.421429 0.397717
lowerneck -13.8266 -4.39105 -8.16842
upperneck 12.1003 -4.62208 2.02562
head 6.18281 -2.47115 1.52571
rclavicle 2.70844e-015 -1.19271e-014
rhumerus -24.6353 1.25556 -92.233
rradius 28.8054
rwrist 8.57375
rhand -12.0986 -27.3888
rfingers 7.12502
rthumb 13.962 -56.8999
lclavicle 2.70844e-015 -1.19271e-014
lhumerus -21.8593 0.0180949 94.6922
lradius 23.9194
lwrist -26.3509
lhand -8.49471 22.5253
lfingers 7.12502
lthumb 17.4328 51.7636
rfemur -9.64874 0.745198 26.6357
rtibia 18.5666
rfoot -17.7231 -15.5541
rtoes 16.2322
lfemur -11.7292 -9.02202 -11.8457
ltibia 19.5067
lfoot -12.6271 -0.589461
ltoes -8.04408
60
root 45.0232 17.7345 4.32737 123.548 -85.2651 -116.047
lowerback -4.30226 -0.397352 3.95926
upperback -1.33898 -0.790953 2.55399
thorax 1.01972 -0.418601 0.362921
lowerneck -13.8871 -4.26825 -8.02852
upperneck 12.1109 -4.47744 2.02293
head 6.1852 -2.39442 1.51617
rclavicle 4.94477e-015 -2.0276e-014
rhumerus -24.8262 0.688477 -91.9345
rradius 28.5627
rwrist 8.56879
rhand -12.1718 -27.488
rfingers 7.12502
rthumb 13.8915 -57.0041
lclavicle 4.94477e-015 -2.0276e-014
lhumerus -21.9431 0.913142 94.2993
lradius 23.4135
lwrist -27.0258
lhand -8.54344 22.5531
lfingers 7.12502
lthumb 17.3859 51.7955
rfemur -9.64932 0.689607 26.7859
rtibia 18.7524
rfoot -18.0213 -15.5489
rtoes 16.0463
lfemur -12.1358 -8.91227 -11.7291
ltibia 20.3435
lfoot -12.8283 -0.571577
ltoes -8.6163
